<svg width="2667" height="1904" viewBox="0 0 2667 1904" fill="none" xmlns="http://www.w3.org/2000/svg">
<path d="M1108.18 138.114C1117.45 138.957 1117.45 138.957 1126.58 143.047C1145.66 181.08 1140.99 219.909 1139.03 261.893C1137.94 304.844 1142.84 346.297 1171.26 379.05C1196.1 398.506 1222.19 397.683 1251.88 396.461C1256.7 396.349 1261.53 396.236 1266.5 396.119C1276.39 395.86 1286.29 395.539 1296.18 395.156C1309.48 394.651 1322.76 394.353 1336.07 394.111C1399.55 392.478 1452.8 386.104 1499.04 335.42C1509.96 321.155 1519.79 306.251 1529.5 291.026C1582.71 208.851 1582.71 208.851 1609.4 202.239C1650.51 197.891 1685.52 199.985 1718.89 227.827C1728.25 240.736 1730.57 246.433 1734.41 261.43C1738.7 275.978 1741.13 280.15 1753.65 287.963C1757.83 289.889 1762.01 291.816 1766.31 293.801C1788.03 304.019 1788.03 304.019 1795.05 322.163C1792.42 349.884 1782.8 369.02 1766.96 390.758C1752.92 402.601 1744.02 401.71 1726.37 401.086C1721.14 400.965 1715.92 400.844 1710.54 400.72C1696.76 399.544 1696.76 399.544 1682.97 394.612C1662.18 410.052 1641.48 427.94 1632.39 453.803C1631.47 468.065 1630.93 482.076 1630.66 496.347C1629.6 527.329 1626.64 552.028 1614.23 580.395C1594.73 626.901 1591 679.607 1591 730.031C1595.13 732.015 1595.13 732.015 1599.34 734.039C1609.75 740.099 1616.37 744.288 1623.19 754.695C1623.77 766.41 1623.77 766.41 1618.59 779.358C1608.93 790.033 1599.05 797.872 1586.41 804.021C1570.6 803.096 1570.6 803.096 1558.82 799.088C1560.33 803.972 1561.85 808.855 1563.41 813.886C1563.6 825.394 1563.62 836.907 1563.41 848.415C1544.05 860.283 1530.6 865.82 1508.23 863.213C1494.56 858.363 1490.27 854.059 1482.33 840.919C1454.1 774.093 1452.24 703.898 1453.06 631.379C1444.82 631.246 1436.58 631.15 1428.34 631.07C1423.75 631.013 1419.16 630.956 1414.44 630.897C1402.55 630.49 1402.55 630.49 1393.28 636.311C1386.67 636.665 1380.05 636.725 1373.43 636.619C1369.54 636.581 1365.65 636.543 1361.64 636.504C1357.57 636.44 1353.5 636.377 1349.31 636.311C1341.25 636.186 1333.2 636.082 1325.15 636.003C1319.78 635.917 1319.78 635.917 1314.31 635.829C1305.82 635.31 1305.82 635.31 1301.31 641.244C1294.42 640.624 1294.42 640.624 1287.39 639.991C1250.84 636.438 1250.84 636.438 1218.02 651.34C1197.49 673.403 1175.38 697.826 1170.26 729.415C1173.03 747.999 1179.82 756.567 1190.38 771.111C1195.55 779.358 1195.55 779.358 1197.85 793.231C1195.55 804.021 1195.55 804.021 1181.76 813.886C1168.82 815.37 1168.82 815.37 1154.17 815.428C1149.33 815.51 1144.49 815.593 1139.51 815.678C1126.58 813.886 1126.58 813.886 1118.15 807.065C1112.01 797.947 1109.96 790.376 1108.18 779.358C1106.64 793.121 1106.64 793.121 1108.18 808.954C1111.22 812.82 1114.25 816.686 1117.38 820.669C1130.61 839.294 1129.04 850.052 1126.58 873.078C1108.1 886.293 1093.12 886.377 1071.4 882.943C1058.2 874.094 1050.75 868.231 1043.81 853.347C1042.78 827.042 1043.35 800.743 1043.81 774.425C1043.84 770.967 1043.88 767.509 1043.91 763.946C1044.73 701.001 1044.73 701.001 1059.9 681.63C1065.59 676.289 1065.59 676.289 1071.4 670.84C1077.68 657.361 1076.04 647.283 1075.48 632.226C1072.31 514.289 1072.31 514.289 1097.55 467.908C1107.2 445.369 1107.12 425.967 1100.08 402.822C1095.38 390.389 1090.34 378.171 1085.19 365.941C1070.93 329.802 1061.13 301.052 1066.8 261.43C1067.48 253.628 1067.48 253.628 1068.18 245.669C1072.4 206.274 1081.28 166.98 1108.18 138.114Z" fill="#2C0EFB"/>
<path d="M974.834 715.233C995.96 731.714 1006.81 752.133 1011.62 779.357C1014.73 825.48 1011.13 870.934 1007.02 916.855C1002.53 968.178 1001.39 1019.19 1001.27 1070.69C1001.25 1074.3 1001.23 1077.91 1001.2 1081.63C999.293 1175.41 999.293 1175.41 1025.41 1262.76C1028.45 1264.38 1031.48 1266.01 1034.61 1267.69C1033.66 1276.71 1033.66 1276.71 1030.01 1287.42C1011.67 1301.5 991.253 1310.74 969.086 1314.86C941.769 1308.86 923.917 1287.92 906.147 1266.15C885.223 1241 863.62 1216.7 841.484 1192.77C838.509 1189.52 835.533 1186.27 832.468 1182.91C829.658 1179.89 826.848 1176.87 823.953 1173.76C821.457 1171.06 818.962 1168.36 816.391 1165.58C808.909 1158.02 808.909 1158.02 795.501 1154.24C793.432 1158.89 791.364 1163.55 789.232 1168.34C758.458 1235.16 717.691 1294.75 651.23 1323.8C607.69 1331.85 575.274 1329.17 537.998 1302.22C509.099 1278.28 491.299 1249.42 485.513 1210.48C482.913 1159.48 501.529 1118.75 532.25 1080.86C552.098 1058.77 572.978 1041.22 597.775 1025.99C581.185 1020.06 567.554 1020.4 550.068 1020.44C544.058 1020.43 538.047 1020.41 531.855 1020.4C517.856 1020.95 505.57 1022.45 492.015 1025.99C493.184 997.212 494.836 977.932 515.006 956.932C537.838 940.604 561.924 944.196 588.579 947.067C651.912 963.117 713.131 1001.98 763.313 1045.72C786.808 999.358 809.031 952.579 829.988 904.831C916.943 707.738 916.943 707.738 974.834 715.233Z" fill="#6155F5"/>
<path d="M1089.79 1243.03C1110.24 1245.53 1121.22 1252.08 1135.77 1267.69C1150.13 1291.14 1155.18 1308.43 1154.17 1336.75C1159.21 1336.1 1164.26 1335.46 1169.45 1334.8C1176.14 1334.11 1182.83 1333.42 1189.52 1332.74C1192.83 1332.3 1196.15 1331.85 1199.57 1331.4C1218.06 1329.68 1226.32 1330.71 1241.52 1342.53C1251.5 1357.64 1253.43 1363.31 1252.46 1381.45C1252.25 1386.11 1252.05 1390.78 1251.85 1395.59C1251.48 1400.59 1251.11 1405.59 1250.73 1410.74C1250.36 1416.24 1250 1421.75 1249.62 1427.42C1248.59 1441.61 1247.42 1455.77 1246.13 1469.93C1248.88 1465.25 1251.63 1460.57 1254.47 1455.75C1264.53 1440.33 1264.53 1440.33 1278.32 1430.47C1297.49 1427.21 1314.19 1426.82 1330.91 1437.86C1340.64 1454.55 1343.1 1470.51 1347.3 1489.66C1348.64 1484.53 1349.97 1479.41 1351.35 1474.13C1376.35 1381.61 1376.35 1381.61 1411.67 1348.46C1427.49 1340.68 1435.88 1338.61 1453.06 1341.68C1469.88 1351.74 1479.13 1358.96 1489.84 1376.21C1490.96 1388.66 1490.96 1388.66 1490.9 1403.41C1490.89 1408.77 1490.88 1414.13 1490.87 1419.66C1490.82 1425.26 1490.76 1430.86 1490.7 1436.63C1490.7 1444.92 1490.7 1444.92 1490.7 1453.38C1490.56 1480.82 1489.19 1506.9 1485.24 1534.05C1484.08 1551.2 1483.36 1568.36 1482.66 1585.54C1482.36 1592.36 1482.36 1592.36 1482.06 1599.32C1481.57 1610.45 1481.1 1621.58 1480.65 1632.7C1514.34 1619.31 1525.3 1603.69 1540.42 1568.58C1545.26 1553.72 1549.6 1538.75 1553.95 1523.72C1563.24 1496.36 1576.93 1473.38 1597.9 1454.82C1616.23 1447.45 1629.94 1446.81 1647.91 1455.44C1655.38 1464.99 1655.38 1464.99 1657.97 1481.64C1654.71 1504.16 1648.94 1510.29 1632.39 1524.19C1617.16 1533.13 1617.16 1533.13 1604.8 1538.98C1604.68 1546.28 1604.59 1553.58 1604.51 1560.87C1604.43 1566.97 1604.43 1566.97 1604.35 1573.18C1603.73 1583.34 1603.73 1583.34 1609.4 1588.31C1620.1 1591.2 1620.1 1591.2 1632.39 1588.31C1646.06 1573.3 1656.93 1558.37 1664.58 1538.98C1669.13 1538.98 1673.68 1538.98 1678.37 1538.98C1677.23 1573.41 1668.22 1592.88 1646.18 1617.91C1632.45 1630 1625.06 1632.45 1607.39 1634.86C1587.99 1632.31 1578.33 1626.31 1563.41 1612.97C1561.9 1608.09 1560.38 1603.21 1558.82 1598.18C1555.78 1598.18 1552.75 1598.18 1549.62 1598.18C1548.86 1602.14 1548.1 1606.11 1547.32 1610.2C1536.43 1637.93 1517.67 1664.75 1492.07 1678.27C1475.73 1683.65 1460.6 1685.47 1443.86 1682.03C1424.07 1670.74 1413.6 1655.43 1407.07 1632.7C1403.58 1585.98 1408.33 1540.52 1416.27 1494.59C1418.14 1483.55 1420 1472.5 1421.85 1461.46C1423.08 1454.12 1424.34 1446.78 1425.62 1439.46C1428.7 1421.43 1430.8 1404.4 1430.06 1386.07C1427.03 1386.07 1423.99 1386.07 1420.87 1386.07C1389.85 1447.98 1378.41 1517.22 1374.24 1586.8C1373.45 1596.79 1373.45 1596.79 1370.29 1612.97C1356.59 1624.64 1341.49 1625.2 1324.16 1624.75C1308.4 1621.43 1301.42 1611.49 1292.12 1598.18C1279.76 1558.57 1288.01 1510.55 1292.12 1469.93C1283.2 1471.22 1283.2 1471.22 1273.72 1474.86C1245.19 1522.16 1240.35 1577.98 1240.1 1633.01C1240.06 1639 1240.06 1639 1240.02 1645.11C1240.26 1666.15 1241.7 1682.58 1250.73 1701.76C1216.25 1724.15 1216.25 1724.15 1190.95 1721.49C1172.5 1709.35 1165.05 1699.03 1158.77 1677.1C1157.75 1663.6 1157.24 1650.81 1157.33 1637.33C1157.35 1633.47 1157.36 1629.6 1157.38 1625.63C1158.49 1559.03 1171.68 1493.62 1183.46 1428.44C1187.37 1404.54 1189.57 1380.68 1190.95 1356.48C1172.74 1358.92 1172.74 1358.92 1154.17 1361.41C1154.45 1365.99 1154.74 1370.57 1155.03 1375.28C1154.68 1437.54 1124.77 1500.06 1085.55 1544.38C1053.08 1576.33 1018.23 1591.41 974.027 1590.51C946.264 1585.81 926.703 1568.79 910.172 1545.15C902.597 1516.98 900.897 1491.37 912.471 1464.38C962.713 1403.91 1026.93 1372.15 1098.99 1351.54C1105.06 1351.54 1111.13 1351.54 1117.38 1351.54C1116.98 1340.34 1116.48 1329.14 1115.94 1317.94C1115.68 1311.7 1115.41 1305.46 1115.14 1299.04C1113.99 1282.85 1113.99 1282.85 1106.55 1272.87C1098.55 1266.36 1098.55 1266.36 1085.19 1267.69C1086.71 1259.55 1088.23 1251.41 1089.79 1243.03Z" fill="#2239D4"/>
<path d="M1738.15 853.347C1756.79 851.219 1763.67 851.866 1779.53 863.212C1780.88 876.045 1780.88 876.045 1780.39 890.958C1780.21 898.378 1780.21 898.378 1780.02 905.949C1779.86 909.751 1779.7 913.553 1779.53 917.471C1782.69 916.683 1785.85 915.894 1789.11 915.082C1804.01 912.257 1818.15 911.527 1833.27 911.305C1838.51 911.178 1843.74 911.051 1849.13 910.92C1853.48 911.454 1857.82 911.988 1862.3 912.538C1874.1 931.531 1870.73 940.091 1866.9 961.865C1860.07 964.307 1860.07 964.307 1853.1 966.798C1853.1 961.914 1853.1 957.031 1853.1 952C1827.31 952 1801.51 952 1774.93 952C1774.61 972.877 1774.34 993.743 1774.18 1014.62C1774.11 1021.7 1774.01 1028.78 1773.89 1035.86C1773.2 1077.38 1774.08 1115.03 1788.73 1154.24C1794.8 1154.24 1800.87 1154.24 1807.12 1154.24C1819.5 1140.73 1824.03 1126.63 1828.68 1108.61C1829.83 1104.21 1830.99 1099.81 1832.18 1095.28C1833.01 1091.95 1833.85 1088.61 1834.71 1085.18C1842.3 1085.18 1849.89 1085.18 1857.7 1085.18C1854.93 1124.53 1846.76 1162.67 1823.5 1194.01C1801.69 1211.7 1783.99 1216.98 1756.54 1213.43C1733.74 1203.33 1722.82 1188.52 1713.43 1164.41C1707.56 1146.41 1703.23 1128.88 1701.36 1109.84C1661.25 1119.63 1661.25 1119.63 1627.79 1144.37C1609.93 1150.76 1596.03 1149.96 1577.21 1149.31C1572.61 1144.37 1572.61 1144.37 1572.32 1128.65C1577.71 1107.93 1578.69 1107.37 1594.45 1096.9C1623.97 1075.75 1632.7 1039.15 1639.39 1003.2C1640.47 994.393 1641.1 985.526 1641.58 976.663C1605.53 997.077 1583.83 1036.16 1570.91 1076.84C1554.4 1152.33 1566.32 1241.03 1577.21 1317.02C1578.81 1330.16 1580.31 1343.32 1581.81 1356.48C1531.04 1360.33 1531.04 1360.33 1514.27 1345.69C1503.33 1320.55 1503 1296.49 1503.19 1269.13C1503.19 1265.56 1503.2 1261.98 1503.21 1258.29C1503.23 1246.93 1503.29 1235.58 1503.35 1224.22C1503.37 1216.49 1503.39 1208.76 1503.41 1201.03C1503.46 1182.14 1503.54 1163.26 1503.64 1144.37C1498.56 1147.54 1493.49 1150.71 1488.26 1153.97C1478.73 1159.92 1470.41 1164.49 1459.95 1168.42C1445.63 1175.33 1435.77 1185.1 1424.3 1196.47C1405.97 1212.66 1390.64 1215.65 1367.39 1214.95C1336.64 1210.66 1316.66 1192.85 1297.31 1167.96C1280.17 1138.95 1284.44 1098.29 1287.52 1065.45C1299.4 1023.03 1321 994.135 1356.49 971.73C1378.69 963.792 1400.32 960.814 1421.91 972.193C1446.01 990.398 1461.95 1010.94 1469.58 1042.06C1471.88 1058.74 1471.88 1074.8 1471.73 1091.66C1471.69 1097.84 1471.65 1104.03 1471.61 1110.4C1471.56 1115.1 1471.5 1119.8 1471.45 1124.64C1487.65 1112.08 1487.65 1112.08 1499.04 1095.05C1500.23 1083.64 1501.18 1072.21 1502.02 1060.77C1502.57 1053.76 1503.12 1046.76 1503.67 1039.76C1504.52 1028.74 1505.36 1017.72 1506.15 1006.7C1506.93 996.049 1507.77 985.403 1508.63 974.755C1509.34 965.201 1509.34 965.201 1510.07 955.455C1513.14 935.166 1517.98 920.932 1526.63 902.673C1535.82 897.741 1535.82 897.741 1563.41 897.741C1563.41 941.69 1563.41 985.64 1563.41 1030.92C1572.52 1011.39 1581.62 991.855 1591 971.73C1611.34 945.545 1624.29 933.461 1655.38 927.336C1655.38 930.592 1655.38 933.847 1655.38 937.202C1687.24 932.318 1687.24 932.318 1719.75 927.336C1721.08 917.875 1722.41 908.414 1723.78 898.665C1726.45 879.642 1728.09 869.531 1738.15 853.347Z" fill="#00C0E8"/>
<path d="M1250.16 786.14C1269.33 790.252 1282.34 799.871 1296.71 813.886C1308.22 838.559 1304.25 872.093 1297.31 897.76C1289.46 918.486 1281.02 937.691 1269.63 956.47C1231.99 1020.15 1242.47 1093.63 1251.97 1165.51C1255.53 1179.69 1260.69 1187.3 1269.13 1198.63C1267.98 1209.33 1267.09 1215.61 1259.93 1223.3C1236.82 1226.51 1219.52 1227.75 1200.44 1212.5C1197.31 1207.93 1194.18 1203.35 1190.95 1198.63C1188.2 1194.66 1185.45 1190.7 1182.62 1186.61C1176.15 1171.64 1176.1 1160.69 1177.16 1144.37C1174.12 1144.37 1171.09 1144.37 1167.96 1144.37C1166.82 1148.75 1165.69 1153.12 1164.51 1157.63C1156.29 1181.01 1145.89 1194.68 1126.58 1208.5C1103.19 1211.84 1082.63 1212.56 1061.92 1199.87C1042.26 1175.37 1041.28 1154.03 1041.78 1122.31C1046.13 1085.03 1062.35 1052.37 1088.64 1027.53C1109.55 1011.57 1124.09 1008.15 1149.57 1011.19C1165.66 1018.59 1165.66 1018.59 1177.16 1025.99C1177.07 1022.71 1176.97 1019.42 1176.88 1016.04C1176.33 982.087 1179.32 950.482 1185.21 917.163C1186.29 910.386 1186.29 910.386 1187.4 903.473C1205.75 796.496 1205.75 796.496 1250.16 786.14Z" fill="#00C3D0"/>
<path d="M1901.64 1176.71C1941.01 1184.4 1976.54 1203.02 2000.25 1238.09C2019.35 1269.84 2025.55 1304.46 2018.64 1341.68C2010.36 1358.4 2000.1 1369.29 1986.46 1381.14C1983.62 1383.74 1980.78 1386.34 1977.85 1389.02C1954.87 1406.27 1932.65 1408.02 1905.41 1408.27C1900.47 1408.32 1900.47 1408.32 1895.43 1408.37C1868.63 1407.68 1848.41 1400.19 1825.52 1384.84C1820.92 1376.21 1820.92 1376.21 1820.92 1359.56C1827.67 1333.29 1842.52 1322.44 1861.44 1305.3C1872.94 1292.87 1872.94 1292.87 1873.51 1274.78C1872.51 1258.58 1872.51 1258.58 1866.9 1248.27C1859.59 1232.1 1860.25 1216.25 1862.3 1198.63C1870.05 1177.86 1881.37 1175.5 1901.64 1176.71Z" fill="#2C0EFB"/>
<path d="M823.092 1410.74C834.588 1418.44 834.588 1418.44 841.485 1430.47C843.849 1453.72 840.203 1468.43 832.289 1489.66C830.285 1509.72 829.954 1520.2 840.048 1537.44C850.674 1548.84 861.857 1558.65 873.673 1568.58C880.955 1584.2 880.205 1595.79 878.271 1612.97C846.29 1642.6 807.684 1641.15 767.459 1638.71C747.082 1636.21 732.779 1626.83 717.332 1612.97C714.155 1610.28 710.977 1607.58 707.704 1604.8C688.373 1585.38 682.902 1569.85 681.982 1541.45C684.321 1499.67 697.608 1471.82 725.989 1443.34C754.71 1419.92 786.936 1404.61 823.092 1410.74Z" fill="#2C0EFB"/>
<path d="M1753.67 1286.5C1757.31 1286.43 1760.95 1286.36 1764.7 1286.28C1774.93 1287.42 1774.93 1287.42 1788.73 1297.29C1790.06 1310.47 1790.45 1322.34 1790.17 1335.51C1790.12 1339.4 1790.08 1343.29 1790.03 1347.3C1786.7 1518.67 1786.7 1518.67 1765.74 1563.65C1756.63 1563.65 1747.53 1563.65 1738.15 1563.65C1738.03 1558.93 1737.92 1554.22 1737.8 1549.37C1737.26 1527.41 1736.7 1505.45 1736.14 1483.49C1736.04 1479.56 1735.94 1475.63 1735.83 1471.58C1734.53 1420.72 1733 1369.9 1729.95 1319.11C1729.45 1310.2 1729.17 1301.28 1728.95 1292.35C1736.21 1284.56 1743.64 1286.58 1753.67 1286.5Z" fill="#00C0E8"/>
<path d="M2092.95 1361.27C2113.59 1374.15 2127.81 1387.06 2138.2 1410.74C2142.23 1431.65 2140.33 1446.4 2129.86 1464.99C2108.34 1479.48 2089.38 1479.04 2064.62 1474.86C2040.57 1462.43 2021.47 1441.46 2009.45 1415.67C2007.72 1399.33 2007.72 1399.33 2009.45 1381.14C2032.9 1349.86 2059.23 1344.99 2092.95 1361.27Z" fill="#CD38FF"/>
<path d="M666.751 1588.31C681.408 1595.09 681.408 1595.09 689.742 1608.04C694.151 1629.29 694.334 1648.32 684.479 1667.73C667.914 1689.77 650.099 1704.31 623.408 1708.41C602.914 1709.68 591.788 1708.9 574.211 1696.83C563.409 1678.29 561.497 1663.6 565.589 1642.57C586.869 1596 619.897 1580.33 666.751 1588.31Z" fill="#2C0EFB"/>
<path d="M652.955 1489.66C664.105 1502.73 666.605 1508.44 669.336 1526.34C666.75 1543.92 666.75 1543.92 655.829 1557.79C634.452 1574.12 608.975 1579.64 583.011 1577.67C559.756 1572.7 545.625 1561.52 528.801 1543.92C521.945 1529.21 521.858 1520.81 524.203 1504.46C559.395 1459.55 607.463 1462.02 652.955 1489.66Z" fill="#CD38FF"/>
<path d="M2144.09 1243.12C2159.92 1253.31 2169.2 1260.85 2179.58 1277.55C2182 1293.97 2180.39 1300.77 2172.4 1315.17C2150.36 1338.2 2131.07 1342.61 2101.13 1343.53C2079.66 1342.92 2064.17 1340.55 2046.23 1326.88C2034.74 1308.38 2034.57 1299.46 2037.04 1277.55C2061.61 1242.41 2105.5 1224.62 2144.09 1243.12Z" fill="#00C3D0"/>
<path d="M2088.3 1133.83C2096.57 1139.78 2103.57 1146.69 2110.61 1154.24C2112.22 1169.05 2113.28 1179.37 2110.61 1193.7C2089.71 1217.68 2069.81 1228.47 2039.62 1229.77C2016.04 1229.14 1999.59 1222.28 1982.43 1204.49C1975.27 1189.56 1974.73 1180.69 1977.26 1164.1C2004.72 1128.1 2046.8 1115.95 2088.3 1133.83Z" fill="#CD38FF"/>
<path d="M685.143 1361.41C697.446 1366.4 702.822 1371.35 712.733 1381.14C715.578 1383.38 718.423 1385.62 721.354 1387.92C729.823 1401.04 728.838 1410.04 726.527 1425.53C711.89 1444.72 697.561 1458.37 674.258 1461.55C643.81 1461.7 625.741 1456.07 600.65 1436.94C591.223 1422.55 590.288 1412.79 591.04 1395.46C593.177 1386.07 593.177 1386.07 604.098 1374.05C630.296 1357.32 655.012 1358.5 685.143 1361.41Z" fill="#CD38FF"/>
<path d="M1963.46 1420.6C1988.79 1432.38 2008.63 1449.87 2023.24 1474.86C2027.12 1493.87 2025.77 1509.16 2017.21 1526.65C1996.76 1538.89 1977.02 1538.54 1954.27 1534.05C1932.16 1522.39 1912.59 1504.86 1903.69 1479.79C1901.27 1465.11 1901.87 1455.66 1903.69 1440.33C1919.7 1418.86 1939.04 1415.04 1963.46 1420.6Z" fill="#CD38FF"/>
<path d="M785.729 1659.22C795.501 1667.23 795.501 1667.23 800.099 1677.1C800.689 1699.69 798.662 1719.99 785.442 1738.14C761.136 1762.47 742.199 1767.53 709.822 1767.85C696.399 1765.43 690.145 1761.39 680.544 1751.09C675.963 1735.8 677.065 1722.2 680.544 1706.69C703.155 1666.45 742.063 1636.81 785.729 1659.22Z" fill="#00C3D0"/>
<path d="M2041.63 488.332C2049.9 495.192 2049.9 495.192 2055.43 503.13C2054.27 513.673 2053.32 520.193 2046.23 527.793C2038.57 528.578 2030.88 529.034 2023.19 529.354C2015.89 529.665 2015.89 529.665 2008.44 529.981C2000.54 530.272 2000.54 530.272 1992.49 530.568C1987.16 530.777 1981.82 530.987 1976.33 531.202C1926.05 533.029 1875.82 533.212 1825.52 532.726C1825.52 529.47 1825.52 526.215 1825.52 522.861C1828.87 522.34 1832.23 521.82 1835.69 521.284C1851.17 518.864 1866.65 516.392 1882.13 513.92C1887.41 513.103 1892.69 512.286 1898.13 511.444C1927.58 506.701 1955.83 500.699 1984.33 491.37C2002.94 486.376 2022.71 484.468 2041.63 488.332Z" fill="#281598"/>
<path d="M663.877 487.099C681.319 487.351 695.931 489.616 712.572 495.133C743.19 504.49 774.07 509.24 805.561 513.92C811.254 514.794 816.948 515.668 822.813 516.569C836.697 518.697 850.585 520.793 864.476 522.86C864.476 526.116 864.476 529.371 864.476 532.726C811.472 533.363 758.534 532.53 705.548 530.876C699.614 530.724 693.679 530.571 687.565 530.415C679.245 530.128 679.245 530.128 670.756 529.835C665.774 529.68 660.791 529.525 655.658 529.366C643.759 527.793 643.759 527.793 634.562 517.928C637.494 492.138 640.037 487.583 663.877 487.099Z" fill="#00C3D0"/>
<path d="M1811.72 631.378C1838.49 636.18 1861.34 648.311 1885.87 660.357C1890.47 662.564 1895.08 664.77 1899.82 667.043C1904.24 669.199 1908.66 671.354 1913.21 673.575C1917.23 675.533 1921.25 677.49 1925.39 679.507C1935.48 685.409 1942.1 691.252 1949.67 700.435C1946.22 712.458 1946.22 712.458 1940.47 725.098C1932.37 729.222 1932.37 729.222 1922.08 730.031C1887.05 713.161 1858.63 684.286 1831.1 656.234C1821.72 646.038 1821.72 646.038 1811.72 641.243C1811.72 637.988 1811.72 634.732 1811.72 631.378Z" fill="#9D91E5"/>
<path d="M873.672 631.378C859.949 669.776 806.819 708.276 772.51 725.098C759.29 727.256 759.29 727.256 749.519 725.098C746.484 721.843 743.449 718.587 740.322 715.233C740.477 703.244 740.477 703.244 744.921 690.57C755.776 682.336 755.776 682.336 770.031 675.213C775.141 672.622 780.25 670.031 785.515 667.361C790.897 664.745 796.279 662.128 801.824 659.432C807.171 656.72 812.517 654.009 818.026 651.214C857.72 631.378 857.72 631.378 873.672 631.378Z" fill="#3621B8"/>
<path d="M1940.47 355.15C1943.35 366.865 1943.35 366.865 1945.07 379.814C1934.02 391.665 1924.55 393.065 1909.65 396.712C1895.03 400.632 1880.99 406.014 1866.81 411.452C1857.7 414.342 1857.7 414.342 1843.91 414.342C1850.83 392.077 1866.38 385.644 1884.43 373.648C1887.76 371.321 1891.1 368.993 1894.53 366.596C1897.77 364.421 1901.01 362.247 1904.35 360.006C1907.31 358.008 1910.26 356.01 1913.31 353.951C1924.18 349.324 1929.64 351.029 1940.47 355.15Z" fill="#36353C"/>
<path d="M766.368 353.455C784.256 361.184 799.526 370.999 815.62 382.28C818.566 384.27 821.512 386.261 824.547 388.311C831.906 393.412 839.021 398.914 846.083 404.477C846.083 407.733 846.083 410.988 846.083 414.342C813.869 411.128 768.19 404.774 744.921 379.814C744.347 366.866 744.347 366.866 744.921 355.151C754.118 350.218 754.118 350.218 766.368 353.455Z" fill="#8B7AEE"/>
<path d="M1765.74 1588.31C1770.34 1593.24 1770.34 1593.24 1770.79 1603.44C1770.73 1607.5 1770.68 1611.56 1770.62 1615.75C1770.58 1619.82 1770.54 1623.9 1770.5 1628.1C1770.45 1631.25 1770.39 1634.39 1770.34 1637.64C1745.39 1644.18 1745.39 1644.18 1734.13 1637.33C1726.69 1623.59 1727.1 1613.75 1728.95 1598.18C1743.77 1587.58 1748.62 1586.86 1765.74 1588.31Z" fill="#37363D"/>
</svg>
